<svg width="24.500000" height="28.000000" viewBox="0 0 24.5 28" fill="none" xmlns="http://www.w3.org/2000/svg" xmlns:xlink="http://www.w3.org/1999/xlink">
	<desc>
			Created with Pixso.
	</desc>
	<defs/>
	<path id="Vector" d="M17.11 19.25C15.53 19.25 14.82 20.12 12.25 20.12C9.62 20.12 8.91 19.25 7.32 19.25C3.28 19.25 0 22.58 0 26.63C0 27.39 0.6 28 1.36 28L23.07 28C23.84 28 24.5 27.39 24.5 26.63C24.5 22.58 21.16 19.25 17.11 19.25ZM1.75 26.25C1.91 23.35 4.37 21.05 7.32 21C8.42 21 9.46 21.87 12.25 21.87C15.03 21.87 16.02 21 17.11 21C20.07 21.05 22.53 23.35 22.69 26.25L1.75 26.25ZM4.81 8.75L5.46 8.75C5.3 9.35 5.25 9.89 5.25 10.5C5.25 14.38 8.36 17.5 12.25 17.5C16.07 17.5 19.25 14.38 19.25 10.5C19.19 9.89 19.14 9.35 18.97 8.75L19.68 8.75C19.9 8.75 20.12 8.58 20.12 8.31L20.12 7.43C20.12 7.21 19.9 7 19.68 7L19.25 7C19.25 4.21 17.33 1.85 14.71 1.14C14.49 0.49 13.83 0.05 13.12 0L11.37 0C10.6 0.05 9.95 0.49 9.73 1.14C7.16 1.85 5.25 4.21 5.25 7L4.81 7C4.53 7 4.37 7.21 4.37 7.43L4.37 8.31C4.37 8.58 4.53 8.75 4.81 8.75ZM14.87 3C16.4 3.71 17.44 5.25 17.5 7L14.87 7L14.87 3ZM11.37 1.75L13.12 1.75L13.12 7L11.37 7L11.37 1.75ZM7 7C7 5.25 8.03 3.71 9.62 3L9.62 7L7 7ZM7.32 8.75L17.17 8.75C17.33 9.29 17.44 9.89 17.5 10.5C17.5 13.39 15.09 15.75 12.25 15.75C9.35 15.75 7 13.39 7 10.5C7 9.89 7.1 9.29 7.32 8.75Z" fill="#5C8EE6" fill-opacity="1.000000" fill-rule="evenodd"/>
</svg>
