<svg width="36.000000" height="36.000000" viewBox="0 0 36 36" fill="none" xmlns="http://www.w3.org/2000/svg" xmlns:xlink="http://www.w3.org/1999/xlink">
	<desc>
			Created with Pixso.
	</desc>
	<defs/>
	<rect id="Frame 35" rx="0.000000" width="35.000000" height="35.000000" transform="translate(0.500000 0.500000)" fill="#FFFFFF" fill-opacity="0"/>
	<path id="Vector" d="M1.75 21.5L20.12 21.5C21.05 21.5 21.87 20.73 21.87 19.75L21.87 7.5C21.87 6.57 21.05 5.75 20.12 5.75L1.75 5.75C0.76 5.75 0 6.57 0 7.5L0 19.75C0 20.73 0.76 21.5 1.75 21.5ZM1.75 7.5L20.12 7.5L20.12 19.75L1.75 19.75L1.75 7.5ZM33.96 15.26L30.73 12.03C30.07 11.38 29.2 11.05 28.27 11.05L24.5 11.05C24 11.05 23.62 11.43 23.62 11.92L23.62 23.3L12.46 23.3C11.81 22.75 10.99 22.42 10.06 22.42C8.8 22.42 7.71 22.97 7 23.9C6.23 22.97 5.14 22.37 3.93 22.37C1.75 22.37 0 24.17 0 26.31C0 28.5 1.75 30.25 3.93 30.25C5.14 30.25 6.23 29.7 7 28.77C7.71 29.7 8.8 30.25 10.06 30.25C12.19 30.25 14 28.5 14 26.31C14 25.87 13.89 25.43 13.72 25L24.55 25C24.39 25.76 24.44 26.53 24.71 27.35C25.15 28.71 26.35 29.81 27.78 30.14C30.62 30.85 33.25 28.66 33.25 25.87C33.25 25.6 33.19 25.32 33.14 25L34.12 25C34.56 25 35 24.61 35 24.12L35 17.72C35 16.79 34.61 15.92 33.96 15.26ZM3.93 28.5C2.67 28.5 1.75 27.57 1.75 26.31C1.75 25.1 2.67 24.12 3.93 24.12C5.14 24.12 6.12 25.1 6.12 26.31C6.12 27.57 5.14 28.5 3.93 28.5ZM10.06 28.5C8.8 28.5 7.87 27.57 7.87 26.31C7.87 25.1 8.8 24.12 10.06 24.12C11.26 24.12 12.25 25.1 12.25 26.31C12.25 27.57 11.26 28.5 10.06 28.5ZM25.37 12.75L28.27 12.75C28.76 12.75 29.2 12.96 29.53 13.29L32.48 16.25L25.37 16.25L25.37 12.75ZM28.87 28.5C27.39 28.5 26.25 27.35 26.25 25.87C26.25 24.45 27.39 23.25 28.87 23.25C30.29 23.25 31.5 24.45 31.5 25.87C31.5 27.35 30.29 28.5 28.87 28.5ZM33.25 23.25L32.32 23.25C31.55 22.21 30.29 21.5 28.87 21.5C27.39 21.5 26.19 22.21 25.37 23.25L25.37 18L33.25 18L33.25 23.25ZM5.68 18L6.56 18C6.78 18 7 17.83 7 17.56L7 9.68C7 9.46 6.78 9.25 6.56 9.25L5.68 9.25C5.41 9.25 5.25 9.46 5.25 9.68L5.25 17.56C5.25 17.83 5.41 18 5.68 18ZM10.93 18L11.81 18C12.03 18 12.25 17.83 12.25 17.56L12.25 9.68C12.25 9.46 12.03 9.25 11.81 9.25L10.93 9.25C10.66 9.25 10.5 9.46 10.5 9.68L10.5 17.56C10.5 17.83 10.66 18 10.93 18ZM16.18 18L17.06 18C17.28 18 17.5 17.83 17.5 17.56L17.5 9.68C17.5 9.46 17.28 9.25 17.06 9.25L16.18 9.25C15.91 9.25 15.75 9.46 15.75 9.68L15.75 17.56C15.75 17.83 15.91 18 16.18 18Z" fill="#5C8EE6" fill-opacity="1.000000" fill-rule="evenodd"/>
</svg>
