<svg width="28.041931" height="28.021545" viewBox="0 0 28.0419 28.0215" fill="none" xmlns="http://www.w3.org/2000/svg" xmlns:xlink="http://www.w3.org/1999/xlink">
	<desc>
			Created with Pixso.
	</desc>
	<defs/>
	<path id="Vector" d="M27.22 5.35L22.68 0.82C22.19 0.32 21.47 0 20.82 0L9.66 0C8.19 0.05 7.04 1.2 7.04 2.67L7.04 9.07C6.71 9.07 6.38 9.02 5.67 8.8C5.62 8.8 5.51 8.8 5.4 8.8C5.12 8.8 4.85 8.91 4.69 9.07C3.7 10.11 3.76 10.06 2.39 10.44C2.01 10.55 1.73 10.82 1.62 11.21C1.29 12.57 1.29 12.52 0.31 13.5C0.04 13.78 -0.07 14.21 0.04 14.6C0.42 15.91 0.42 15.91 0.04 17.22C-0.07 17.6 0.04 18.04 0.31 18.32C1.29 19.3 1.29 19.3 1.62 20.61C1.73 21 2.01 21.27 2.39 21.38C2.5 21.43 2.55 21.43 2.66 21.43L2.66 27.12C2.66 27.45 2.77 27.72 3.04 27.89C3.32 28.05 3.65 28.05 3.92 27.94L7.04 26.35L10.1 27.94C10.26 28 10.37 28 10.54 28L25.41 28C26.83 28 28.04 26.85 28.04 25.42L28.04 7.21C28.04 6.56 27.71 5.85 27.22 5.35ZM21.04 1.8C21.15 1.85 21.31 1.91 21.42 2.02L26.01 6.61C26.12 6.72 26.18 6.89 26.23 7.05L21.04 7.05L21.04 1.8ZM1.84 17.33C2.12 16.13 2.12 15.69 1.84 14.49C2.66 13.61 2.88 13.23 3.21 12.03C4.41 11.7 4.74 11.48 5.62 10.6C6.16 10.77 6.54 10.82 7.04 10.82C7.47 10.82 7.86 10.77 8.4 10.6C9.22 11.48 9.61 11.7 10.81 12.03C11.14 13.23 11.3 13.56 12.18 14.49C11.85 15.69 11.85 16.13 12.18 17.33C11.36 18.21 11.14 18.59 10.81 19.79C9.99 20.01 9.5 20.17 8.73 20.83C8.19 20.61 7.64 20.5 7.04 20.5C6.38 20.5 5.83 20.61 5.29 20.89C4.52 20.23 4.03 20.01 3.21 19.79C2.88 18.59 2.72 18.26 1.84 17.33ZM7.42 24.6C7.15 24.5 6.87 24.5 6.6 24.6L4.41 25.75L4.41 22.42C4.41 22.47 4.41 22.47 4.41 22.47C4.63 22.69 4.9 22.75 5.12 22.75C5.34 22.75 5.51 22.69 5.72 22.64C6.11 22.36 6.54 22.25 7.04 22.25C7.47 22.25 7.91 22.36 8.29 22.58C8.51 22.75 8.68 22.75 8.9 22.75C9.17 22.75 9.39 22.69 9.61 22.47C9.61 22.47 9.61 22.47 9.66 22.42L9.66 25.75L7.42 24.6ZM26.29 25.42C26.29 25.86 25.85 26.3 25.41 26.3L11.41 26.3L11.41 21.43C11.47 21.43 11.52 21.43 11.63 21.38C12.01 21.27 12.29 21 12.4 20.61C12.72 19.25 12.72 19.3 13.71 18.32C13.98 18.04 14.09 17.6 13.98 17.22C13.6 15.91 13.6 15.91 13.98 14.6C14.09 14.21 13.98 13.78 13.71 13.5C12.72 12.52 12.72 12.52 12.4 11.21C12.29 10.82 12.01 10.55 11.63 10.44C10.32 10.06 10.32 10.11 9.33 9.07C9.17 8.91 8.95 8.85 8.79 8.8L8.79 2.67C8.79 2.18 9.17 1.75 9.66 1.75L19.29 1.75L19.29 7.49C19.29 8.2 19.83 8.75 20.6 8.75L26.29 8.75L26.29 25.42Z" fill="#5C8EE6" fill-opacity="1.000000" fill-rule="evenodd"/>
</svg>
