<svg width="24.000000" height="24.000000" viewBox="0 0 24 24" fill="none" xmlns="http://www.w3.org/2000/svg" xmlns:xlink="http://www.w3.org/1999/xlink">
	<desc>
			Created with Pixso.
	</desc>
	<defs/>
	<rect id="phone" rx="0.000000" width="23.000000" height="23.000000" transform="translate(0.500000 0.500000)" fill="#FFFFFF" fill-opacity="0"/>
	<path id="Vector" d="M19.96 16.08L19.21 19.23C19.12 19.7 18.75 20.01 18.28 20.01C10.4 19.98 4 13.58 4 5.7C4 5.23 4.28 4.86 4.75 4.76L7.9 4.01C8.34 3.92 8.81 4.17 9 4.58L10.46 7.98C10.62 8.39 10.53 8.86 10.18 9.11L8.5 10.48C9.56 12.64 11.31 14.39 13.5 15.45L14.87 13.76C15.12 13.45 15.59 13.33 16 13.48L19.4 14.95C19.81 15.17 20.06 15.64 19.96 16.08Z" fill="#5C8EE6" fill-opacity="1.000000" fill-rule="evenodd"/>
</svg>
