<svg width="31.500000" height="24.554688" viewBox="0 0 31.5 24.5547" fill="none" xmlns="http://www.w3.org/2000/svg" xmlns:xlink="http://www.w3.org/1999/xlink">
	<desc>
			Created with Pixso.
	</desc>
	<defs/>
	<path id="Vector" d="M9.62 7.87C8.64 7.87 7.87 8.69 7.87 9.62C7.87 10.6 8.64 11.37 9.62 11.37C10.55 11.37 11.37 10.6 11.37 9.62C11.37 8.69 10.55 7.87 9.62 7.87ZM15.75 0C7.05 0 0 7.05 0 15.75C0 18.64 0.76 21.38 2.13 23.67C2.4 24.22 3 24.55 3.6 24.55L27.83 24.55C28.43 24.55 29.03 24.22 29.36 23.67C30.67 21.38 31.5 18.64 31.5 15.75C31.5 7.05 24.44 0 15.75 0ZM15.75 21.87C14.49 21.87 13.56 20.94 13.56 19.68C13.56 18.48 14.49 17.5 15.75 17.5C16.95 17.5 17.93 18.48 17.93 19.68C17.93 20.94 16.95 21.87 15.75 21.87ZM27.34 21.87L20.01 21.87C20.34 21.21 20.56 20.5 20.56 19.68C20.56 19.35 20.5 19.03 20.39 18.7L25.42 16.57C26.08 16.24 26.41 15.47 26.14 14.82C25.81 14.16 25.04 13.83 24.39 14.1L19.19 16.35C18.32 15.47 17.06 14.87 15.75 14.87C13.07 14.87 10.93 17.06 10.93 19.68C10.93 20.5 11.1 21.21 11.48 21.87L4.1 21.87C3.11 20.01 2.62 17.93 2.62 15.75C2.62 8.53 8.47 2.62 15.75 2.62C22.96 2.62 28.87 8.53 28.87 15.75C28.87 17.93 28.32 20.01 27.34 21.87ZM7 14C6.01 14 5.25 14.82 5.25 15.75C5.25 16.73 6.01 17.5 7 17.5C7.92 17.5 8.75 16.73 8.75 15.75C8.75 14.82 7.92 14 7 14ZM15.75 5.25C14.76 5.25 14 6.07 14 7C14 7.98 14.76 8.75 15.75 8.75C16.67 8.75 17.5 7.98 17.5 7C17.5 6.07 16.67 5.25 15.75 5.25ZM21.87 7.87C20.89 7.87 20.12 8.69 20.12 9.62C20.12 10.6 20.89 11.37 21.87 11.37C22.8 11.37 23.62 10.6 23.62 9.62C23.62 8.69 22.8 7.87 21.87 7.87Z" fill="#5C8EE6" fill-opacity="1.000000" fill-rule="nonzero"/>
</svg>
