<svg width="21.000000" height="28.000000" viewBox="0 0 21 28" fill="none" xmlns="http://www.w3.org/2000/svg" xmlns:xlink="http://www.w3.org/1999/xlink">
	<desc>
			Created with Pixso.
	</desc>
	<defs/>
	<path id="Vector" d="M20.12 1.75L20.34 1.75C20.67 1.75 21 1.47 21 1.09L21 0.65C21 0.32 20.67 0 20.34 0L0.65 0C0.27 0 0 0.32 0 0.65L0 1.09C0 1.47 0.27 1.75 0.65 1.75L0.87 1.75C0.87 6.78 3.28 12.35 7.92 14C3.22 15.69 0.87 21.27 0.87 26.25L0.65 26.25C0.27 26.25 0 26.57 0 26.9L0 27.34C0 27.72 0.27 28 0.65 28L20.34 28C20.67 28 21 27.72 21 27.34L21 26.9C21 26.57 20.67 26.25 20.34 26.25L20.12 26.25C20.12 21.27 17.66 15.69 13.01 14C17.71 12.35 20.12 6.78 20.12 1.75ZM2.62 1.75L18.37 1.75C18.37 7.82 14.82 12.68 10.5 12.68C6.12 12.68 2.62 7.82 2.62 1.75ZM18.37 26.25L2.62 26.25C2.62 20.23 6.12 15.31 10.5 15.31C14.82 15.31 18.37 20.23 18.37 26.25ZM14.71 8.03C15.03 7.65 14.71 7 14.16 7L6.78 7C6.23 7 5.9 7.65 6.23 8.03C6.34 8.2 6.45 8.36 6.61 8.53C6.72 8.69 6.89 8.75 7.1 8.75L13.83 8.75C14.05 8.75 14.21 8.69 14.32 8.53C14.49 8.36 14.6 8.2 14.71 8.03ZM5.35 22.75C5.03 22.75 4.81 22.96 4.7 23.24C4.7 23.4 4.64 23.57 4.59 23.73C4.53 24.11 4.81 24.5 5.25 24.5L15.69 24.5C16.13 24.5 16.4 24.11 16.35 23.73C16.29 23.57 16.24 23.4 16.24 23.24C16.13 22.96 15.91 22.75 15.58 22.75L5.35 22.75Z" fill="#5C8EE6" fill-opacity="1.000000" fill-rule="nonzero"/>
</svg>
